<svg xmlns="http://www.w3.org/2000/svg" xmlns:xlink="http://www.w3.org/1999/xlink" width="400" zoomAndPan="magnify" viewBox="0 0 300 299.999988" height="400" preserveAspectRatio="xMidYMid meet" version="1.0"><defs><g/><clipPath id="c4660af3cf"><path d="M 150 0 C 67.15625 0 0 67.15625 0 150 C 0 232.84375 67.15625 300 150 300 C 232.84375 300 300 232.84375 300 150 C 300 67.15625 232.84375 0 150 0 Z M 150 0 " clip-rule="nonzero"/></clipPath><clipPath id="1ae716232e"><path d="M 0 0 L 300 0 L 300 300 L 0 300 Z M 0 0 " clip-rule="nonzero"/></clipPath><clipPath id="7e8f2772b2"><path d="M 150 0 C 67.15625 0 0 67.15625 0 150 C 0 232.84375 67.15625 300 150 300 C 232.84375 300 300 232.84375 300 150 C 300 67.15625 232.84375 0 150 0 Z M 150 0 " clip-rule="nonzero"/></clipPath><clipPath id="85f679ee19"><rect x="0" width="300" y="0" height="300"/></clipPath><clipPath id="cf2bb43280"><path d="M 13.894531 42 L 280.894531 42 L 280.894531 300 L 13.894531 300 Z M 13.894531 42 " clip-rule="nonzero"/></clipPath><clipPath id="ba7415f435"><path d="M 13.894531 116.445312 L 13.894531 247.84375 C 13.894531 289.265625 47.472656 322.84375 88.894531 322.84375 L 205.601562 322.84375 C 247.023438 322.84375 280.601562 289.265625 280.601562 247.84375 L 280.601562 116.445312 C 280.601562 75.023438 247.023438 41.445312 205.601562 41.445312 L 88.894531 41.445312 C 47.472656 41.445312 13.894531 75.023438 13.894531 116.445312 Z M 13.894531 116.445312 " clip-rule="nonzero"/></clipPath><clipPath id="ec51cf20fc"><rect x="0" width="79" y="0" height="77"/></clipPath></defs><g clip-path="url(#c4660af3cf)"><g transform="matrix(1, 0, 0, 1, 0, 0)"><g clip-path="url(#85f679ee19)"><g clip-path="url(#1ae716232e)"><g clip-path="url(#7e8f2772b2)"><rect x="-66" width="432" fill="#2757b7" height="431.999983" y="-65.999997" fill-opacity="1"/></g></g></g></g></g><g clip-path="url(#cf2bb43280)"><g clip-path="url(#ba7415f435)"><path fill="#ffffff" d="M 229.273438 42.160156 C 228.035156 42.089844 227.277344 42.359375 226.496094 43.066406 C 225.746094 43.746094 224.601562 44.101562 223.960938 43.855469 C 223.320312 43.609375 222 43.925781 221.03125 44.5625 C 219.964844 45.261719 218.65625 45.519531 217.703125 45.21875 C 216.609375 44.875 215.613281 45.21875 214.390625 46.363281 C 213.433594 47.265625 211.890625 48.375 210.964844 48.835938 C 209.792969 49.414062 209.210938 50.4375 209.042969 52.21875 C 208.914062 53.625 208.34375 55.03125 207.78125 55.347656 C 207.21875 55.664062 206.40625 57.242188 205.972656 58.851562 C 204.984375 62.515625 206.027344 64.460938 211.371094 68.925781 C 215.878906 72.691406 219.277344 73.730469 225 73.082031 L 229.292969 72.597656 L 231.609375 75.960938 C 232.878906 77.8125 235.117188 82.890625 236.574219 87.246094 C 238.949219 94.332031 239.242188 96.082031 239.414062 103.972656 C 239.550781 110.457031 239.988281 113.949219 241.078125 117.1875 C 243.484375 124.363281 244.113281 127.101562 243.347656 127.101562 C 229.867188 122.972656 219.398438 129.988281 214.1875 138.59375 C 213.832031 139.191406 212.523438 139.25 209.652344 138.792969 C 199.179688 137.125 186.777344 142.316406 181.234375 150.691406 C 180.199219 152.257812 178.886719 153.539062 178.316406 153.539062 C 169.179688 149.644531 167.574219 148.917969 168.929688 137.34375 C 170.601562 123.011719 170.800781 122.285156 173.023438 122.550781 C 175.234375 122.8125 176.328125 120.894531 177.753906 114.28125 C 178.789062 109.460938 178.21875 107.277344 175.917969 107.277344 C 174.65625 107.277344 174.546875 106.652344 174.65625 99.328125 C 175.613281 93.484375 174.089844 90.015625 171.566406 84.992188 C 169.171875 80.226562 167.402344 77.796875 164.589844 75.410156 C 153.777344 66.242188 145.082031 66.53125 134.964844 76.398438 C 130.28125 80.964844 129.472656 82.050781 127.03125 87.050781 C 125.121094 90.949219 124.945312 91.984375 124.972656 99.292969 C 125.019531 106.398438 124.859375 107.277344 123.726562 107.277344 C 120.335938 107.277344 120.007812 112.792969 123 119.554688 C 124.351562 122.609375 124.644531 122.847656 126.589844 122.457031 L 128.707031 122.035156 L 129.570312 129.15625 C 130.035156 132.996094 130.800781 138.390625 131.519531 143.070312 C 133.746094 151.71875 131.605469 153.820312 120.496094 155.003906 C 120.300781 155.003906 119.121094 153.527344 117.878906 151.722656 C 111.890625 143.015625 98.320312 138.460938 87.023438 141.371094 C 82.578125 142.503906 82.203125 142.507812 81.519531 141.371094 C 71.015625 127.734375 61.726562 128.910156 51.316406 131.277344 C 51.167969 131.128906 51.765625 128.390625 52.648438 125.195312 C 53.9375 120.523438 54.269531 117.226562 54.34375 108.371094 C 54.425781 98.746094 54.695312 96.414062 56.492188 89.917969 C 59.964844 77.355469 62.003906 74.996094 69.402344 74.960938 C 76.035156 74.917969 83.730469 70.339844 86.671875 64.652344 C 87.660156 62.738281 87.722656 61.949219 87.003906 60.222656 C 86.523438 59.066406 85.671875 57.738281 85.109375 57.269531 C 84.546875 56.804688 84.085938 55.578125 84.085938 54.550781 C 84.085938 52.554688 82.230469 49.992188 80.78125 49.992188 C 80.300781 49.992188 79.289062 49.304688 78.527344 48.464844 C 77.53125 47.367188 76.527344 47.03125 74.929688 47.261719 C 73.699219 47.441406 71.996094 47.117188 71.09375 46.527344 C 70.203125 45.945312 68.832031 45.667969 68.046875 45.917969 C 67.1875 46.191406 66.140625 45.875 65.417969 45.167969 C 62.160156 41.910156 54.988281 47.253906 52.917969 54.480469 C 52.265625 56.746094 50.425781 60.355469 48.820312 62.503906 C 47.21875 64.652344 45.90625 66.800781 45.90625 67.273438 C 45.90625 68.742188 42.496094 74.640625 33.796875 88.226562 C 23.558594 101.5 18.722656 118.386719 14.964844 132.53125 C 12.808594 140.71875 13.515625 142.777344 20.789062 149.492188 C 36.15625 165.007812 54.625 185.265625 72.453125 186.484375 C 77.769531 186.808594 81.453125 187.375 82.183594 187.980469 C 82.925781 188.597656 83.355469 190.117188 83.355469 192.121094 C 83.355469 196.488281 85.121094 204.484375 87.421875 210.523438 C 88.480469 213.300781 90.449219 218.789062 91.796875 222.714844 C 93.480469 227.199219 95.070312 230.71875 96.558594 233.582031 C 107.855469 249.492188 106.078125 258.9375 107.898438 277.253906 C 110.066406 286.992188 108.695312 288.207031 107.285156 287.667969 C 105.820312 287.105469 104.527344 289.867188 105.144531 292.234375 C 105.378906 293.125 105.203125 293.78125 104.730469 293.78125 C 104.277344 293.78125 103.910156 294.945312 103.910156 296.367188 C 103.910156 298.4375 105.019531 299.09375 103.582031 299.640625 C 101.316406 300.5 99.535156 303.183594 99.113281 306.367188 C 98.933594 307.722656 98.265625 321.464844 97.628906 326.140625 C 96.992188 330.8125 96.210938 337.75 95.890625 341.558594 C 95.574219 345.367188 94.445312 351.957031 93.382812 356.195312 C 90.042969 369.519531 85.554688 387.792969 83.046875 398.195312 C 76.351562 414.28125 90.339844 408.789062 93.921875 415.585938 C 91.152344 428.992188 95.910156 441.226562 90.210938 454.058594 C 88.390625 457.621094 82.722656 476.066406 81.925781 481.027344 C 80.652344 488.964844 80.953125 497.566406 83.695312 531.355469 C 84.851562 545.613281 84.226562 551.519531 81.558594 551.519531 C 77.304688 565.371094 72.230469 567.652344 65.722656 578.921875 C 65.722656 579.398438 63.925781 581.5625 61.730469 583.730469 C 49.074219 599.226562 49.011719 609.136719 69.257812 609.441406 C 75.765625 609.441406 82.007812 610.328125 87.886719 608.367188 C 94.800781 606.203125 100.597656 598.3125 106.714844 596.394531 C 107.984375 588.523438 108.371094 577.933594 107.003906 573.488281 C 106.023438 570.3125 105.308594 565.070312 105.078125 559.367188 C 104.929688 555.738281 104.601562 554.730469 103.300781 553.867188 C 101.15625 552.441406 101.21875 551.480469 104.644531 533.324219 C 107.992188 515.589844 108.613281 513.457031 111.824219 508.792969 C 117.148438 501.054688 117.472656 499.441406 117.617188 479.863281 L 117.75 462.179688 L 121.84375 454.878906 C 124.820312 449.570312 126.4375 445.582031 127.773438 440.253906 C 128.78125 436.222656 130.515625 430.519531 131.625 427.570312 C 133.273438 423.203125 133.980469 422.144531 135.480469 421.835938 C 139.523438 421.003906 139.53125 420.992188 146.390625 405.757812 C 150.800781 395.96875 152.128906 391.886719 153.046875 385.304688 C 153.714844 380.519531 154.195312 379.066406 154.882812 379.753906 C 155.054688 379.921875 156.394531 384.175781 157.871094 389.207031 C 160.457031 398.019531 160.761719 399.726562 161.515625 409.429688 C 161.707031 411.855469 162.085938 415.277344 162.363281 417.039062 L 162.867188 420.238281 L 166.980469 419.8125 C 169.246094 419.582031 171.882812 419.296875 172.847656 419.183594 C 174.859375 418.945312 175.453125 420.332031 180.175781 436.285156 C 182.15625 442.988281 184.09375 447.589844 187.230469 453.085938 L 191.554688 460.65625 L 191.714844 477.265625 C 191.902344 496.140625 192.210938 497.722656 197.460938 506.757812 C 201.050781 512.945312 203.824219 528.300781 206.667969 544.121094 C 208.484375 554.230469 208.519531 555.476562 206.992188 557 C 206.230469 557.761719 205.6875 559.9375 205.464844 563.113281 C 205.277344 565.820312 204.8125 570.019531 204.433594 572.445312 C 202.871094 582.375 202.363281 590.839844 203.039062 595.601562 C 203.449219 605.5625 214.214844 603.027344 222.589844 608.511719 C 229.113281 610.644531 237.214844 609.992188 243.316406 608.933594 C 260.1875 609.144531 257.839844 596.070312 247.351562 585.90625 C 241.632812 580.457031 239.695312 578.253906 240.1875 577.757812 C 240.464844 577.484375 240.144531 577.046875 239.488281 576.792969 C 238.824219 576.539062 238.28125 576 238.28125 575.59375 C 235.425781 561.804688 237.949219 565.765625 230.621094 556.894531 C 229.539062 555.964844 228.191406 555.199219 227.625 555.199219 C 225.308594 555.199219 225.324219 547.644531 228.046875 499.394531 C 228.527344 490.910156 228.527344 484.625 228.046875 480.894531 C 227.25 474.722656 222.222656 458.394531 219.496094 453.132812 C 218.175781 450.578125 217.800781 448.660156 217.800781 444.6875 C 217.800781 436.875 216.160156 428.28125 214.058594 422.703125 C 210.765625 413.617188 220.605469 412.558594 224.792969 411.023438 C 227.601562 410.007812 227.65625 404.078125 226.25 400.707031 C 224.703125 397.007812 222.347656 386.902344 220.742188 377.097656 C 219.953125 372.269531 218.988281 367.484375 218.59375 366.460938 C 218.199219 365.433594 217.164062 360.972656 216.285156 356.542969 C 215.40625 352.117188 212.25 344.394531 211.03125 339.636719 C 208.058594 329.398438 209.855469 310.152344 205.234375 303.257812 C 203.257812 301.28125 202.765625 299.664062 202.34375 299.664062 C 201.917969 299.664062 203.039062 298.363281 203.039062 296.773438 C 203.039062 295.179688 202.707031 293.671875 202.304688 293.421875 C 201.902344 293.171875 201.570312 291.628906 201.570312 289.988281 C 201.570312 287.367188 201.390625 287.058594 200.105469 287.394531 C 198.789062 287.738281 198.628906 287.4375 198.628906 284.359375 C 198.628906 282.476562 196.066406 278.453125 196.527344 275.417969 C 193.167969 255.292969 200.539062 240.859375 205.910156 230.429688 C 208.769531 224.664062 211.960938 215.886719 215.183594 201.441406 C 215.757812 198.722656 216.242188 194.8125 216.242188 192.753906 C 216.242188 190.117188 216.636719 188.683594 217.542969 187.894531 C 218.292969 187.242188 222.25 186.292969 227.046875 185.617188 C 247.101562 182.167969 256.46875 162.210938 268.664062 149.195312 C 273.058594 144.515625 277.507812 139.410156 278.554688 137.84375 C 281.445312 133.523438 281.066406 129.507812 276.652344 117.558594 C 271.867188 100.570312 261.574219 87.410156 254.769531 78.246094 C 251.457031 73.785156 247.679688 68.003906 246.375 65.394531 C 245.070312 62.785156 243.226562 59.820312 242.277344 58.804688 C 241.328125 57.789062 239.867188 54.816406 239.039062 52.195312 C 237.128906 46.199219 234.445312 43.03125 230.6875 42.34375 C 230.148438 42.25 229.683594 42.1875 229.269531 42.160156 Z M 229.273438 42.160156 " fill-opacity="1" fill-rule="nonzero"/></g></g><g transform="matrix(1, 0, 0, 1, 108, 162)"><g clip-path="url(#ec51cf20fc)"><g fill="#2757b7" fill-opacity="1"><g transform="translate(0.632685, 58.060786)"><g><path d="M 4 0 L 4 -41.203125 L 11.53125 -41.203125 L 30.90625 -12.1875 L 30.90625 -41.203125 L 38.4375 -41.203125 L 38.4375 0 L 30.90625 0 L 11.53125 -28.953125 L 11.53125 0 Z M 4 0 "/></g></g></g><g fill="#2757b7" fill-opacity="1"><g transform="translate(43.064913, 58.060786)"><g><path d="M 13.59375 0 L 13.59375 -35.140625 L 1.59375 -35.140625 L 1.59375 -41.203125 L 33.203125 -41.203125 L 33.203125 -35.140625 L 21.125 -35.140625 L 21.125 0 Z M 13.59375 0 "/></g></g></g></g></g></svg>
